/* XPM */
static char * letterBg_xpm[] = {
"45 45 2 1",
" 	c #000000",
".	c #F6FF00",
"                .............                ",
"             ...................             ",
"           .......................           ",
"          ......             ......          ",
"        ......                 ......        ",
"       .....                     .....       ",
"      .....                       .....      ",
"     ....                           ....     ",
"    ....                             ....    ",
"    ...                               ...    ",
"   ....                               ....   ",
"  ....                                 ....  ",
"  ...                                   ...  ",
" ....                                   .... ",
" ...                                     ... ",
" ...                                     ... ",
"...                                       ...",
"...                                       ...",
"...                                       ...",
"...                                       ...",
"...                                       ...",
"...                                       ...",
"...                                       ...",
"...                                       ...",
"...                                       ...",
"...                                       ...",
"...                                       ...",
"...                                       ...",
"...                                       ...",
" ...                                     ... ",
" ...                                     ... ",
" ....                                   .... ",
"  ...                                   ...  ",
"  ....                                 ....  ",
"   ....                               ....   ",
"    ...                               ...    ",
"    ....                             ....    ",
"     ....                           ....     ",
"      .....                       .....      ",
"       .....                     .....       ",
"        ......                 ......        ",
"          ......             ......          ",
"           .......................           ",
"             ...................             ",
"                .............                "};
